<svg width="32" height="32" viewBox="0 0 32 32" fill="none" xmlns="http://www.w3.org/2000/svg">
<path d="M2 4H4.33333L5.33333 8M5.33333 8L8.66667 21.3333H26L29.3333 8H5.33333Z" stroke="#EED030" stroke-width="2" stroke-linecap="round" stroke-linejoin="round"/>
<path d="M8.6665 28C9.77107 28 10.6665 27.1046 10.6665 26C10.6665 24.8954 9.77107 24 8.6665 24C7.56193 24 6.6665 24.8954 6.6665 26C6.6665 27.1046 7.56193 28 8.6665 28Z" stroke="#EED030" stroke-width="2" stroke-linecap="round" stroke-linejoin="round"/>
<path d="M26 28C27.1046 28 28 27.1046 28 26C28 24.8954 27.1046 24 26 24C24.8954 24 24 24.8954 24 26C24 27.1046 24.8954 28 26 28Z" stroke="#EED030" stroke-width="2" stroke-linecap="round" stroke-linejoin="round"/>
</svg>
