<svg width="32" height="32" viewBox="0 0 32 32" fill="none" xmlns="http://www.w3.org/2000/svg">
<path d="M0 0H32V32H0V0Z" fill="white" fill-opacity="0.01"/>
<path d="M16.0003 29.3332C19.6822 29.3332 23.0155 27.8408 25.4284 25.4279C27.8413 23.015 29.3337 19.6817 29.3337 15.9998C29.3337 12.318 27.8413 8.98464 25.4284 6.57174C23.0155 4.15889 19.6822 2.6665 16.0003 2.6665C12.3185 2.6665 8.98513 4.15889 6.57223 6.57174C4.15938 8.98464 2.66699 12.318 2.66699 15.9998C2.66699 19.6817 4.15938 23.015 6.57223 25.4279C8.98513 27.8408 12.3185 29.3332 16.0003 29.3332Z" fill="#0A2A1D" stroke="#EED030" stroke-width="2" stroke-linejoin="round"/>
<path fill-rule="evenodd" clip-rule="evenodd" d="M15.9997 7.3335C16.9201 7.3335 17.6663 8.0797 17.6663 9.00016C17.6663 9.92063 16.9201 10.6668 15.9997 10.6668C15.0792 10.6668 14.333 9.92063 14.333 9.00016C14.333 8.0797 15.0792 7.3335 15.9997 7.3335Z" fill="#EED030"/>
<path d="M16.3333 22.6668V13.3335H15.6667H15" stroke="#EED030" stroke-width="2" stroke-linecap="round" stroke-linejoin="round"/>
<path d="M14 22.667H18.6667" stroke="#EED030" stroke-width="2" stroke-linecap="round" stroke-linejoin="round"/>
</svg>
