<svg width="76" height="75" viewBox="0 0 76 75" fill="none" xmlns="http://www.w3.org/2000/svg">
<path d="M71.004 23.201C65.4488 10.7213 52.7619 2 37.9996 2C23.2372 2 10.5503 10.7213 4.99512 23.201" stroke="#EED030" stroke-width="4" stroke-linecap="round" stroke-linejoin="round"/>
<path d="M38.0002 19.667C31.3353 26.0799 27.2002 35.0167 27.2002 44.9012C27.2002 45.7853 27.2333 46.662 27.2983 47.53C33.9057 53.936 38.0002 62.8334 38.0002 72.6694C38.0002 62.8334 42.0946 53.936 48.7021 47.53C48.7671 46.662 48.8002 45.7853 48.8002 44.9012C48.8002 35.0167 44.665 26.0799 38.0002 19.667Z" stroke="#EED030" stroke-width="4" stroke-linecap="round" stroke-linejoin="round"/>
<path d="M2 37.335C2 56.8499 18.1177 72.6699 38 72.6699C38 62.8339 33.9055 53.9365 27.2981 47.5305C20.7963 41.2266 11.8611 37.335 2 37.335Z" stroke="#EED030" stroke-width="4" stroke-linecap="round" stroke-linejoin="round"/>
<path d="M74 37.335C74 56.8499 57.8823 72.6699 38 72.6699C38 62.8339 42.0945 53.9365 48.7019 47.5305C55.2037 41.2266 64.1389 37.335 74 37.335Z" stroke="#EED030" stroke-width="4" stroke-linecap="round" stroke-linejoin="round"/>
</svg>
