<svg width="49" height="48" viewBox="0 0 49 48" fill="none" xmlns="http://www.w3.org/2000/svg">
<path d="M16.2135 20.4846H39.0798L41.5748 9.31181H13.3037L16.2135 20.4846ZM9.97735 3.72492H47.3953C47.3953 3.72492 48.6423 3.72492 48.6423 6.05238C48.6423 8.38083 43.6532 24.675 43.6532 24.675C43.6532 24.675 43.2375 26.0715 42.4061 26.0715H21.2026L19.9556 29.3309H42.8218C42.8218 29.3309 44.9003 29.3309 44.9003 31.6584C44.9003 33.9859 42.8218 36.3143 42.4061 36.3143H13.7194C13.7194 36.3143 12.0558 35.8478 12.0558 33.9859C12.0558 32.1239 14.9665 26.0715 14.9665 26.0715H12.4723C12.4723 26.0715 11.641 26.0715 11.2244 25.1405C10.8087 24.2095 7.48323 9.31181 7.48323 9.31181L0.830496 6.05238C0.830496 6.05238 0 5.58689 0 4.19041C0 2.79394 1.24706 0.930985 1.66275 0.465492C2.07843 0 2.49412 0 2.9098 0C3.32549 0 9.97735 3.72492 9.97735 3.72492Z" fill="#EED030"/>
<mask id="mask0_248_60" style="mask-type:luminance" maskUnits="userSpaceOnUse" x="9" y="37" width="10" height="11">
<path d="M9.80273 37.207H18.783V47.0217H9.80273V37.207Z" fill="white"/>
</mask>
<g mask="url(#mask0_248_60)">
<path d="M18.7068 42.1323C18.7068 44.8329 16.752 47.021 14.3412 47.021C11.9304 47.021 9.97559 44.8329 9.97559 42.1323C9.97559 39.4326 11.9304 37.2446 14.3412 37.2446C16.752 37.2446 18.7068 39.4326 18.7068 42.1323Z" fill="#EED030"/>
</g>
<mask id="mask1_248_60" style="mask-type:luminance" maskUnits="userSpaceOnUse" x="37" y="37" width="10" height="11">
<path d="M37.6406 37.207H46.6209V47.0217H37.6406V37.207Z" fill="white"/>
</mask>
<g mask="url(#mask1_248_60)">
<path d="M46.5633 42.1328C46.5633 44.8334 44.6094 47.0214 42.1986 47.0214C39.7878 47.0214 37.833 44.8334 37.833 42.1328C37.833 39.4331 39.7878 37.2451 42.1986 37.2451C44.6094 37.2451 46.5633 39.4331 46.5633 42.1328Z" fill="#EED030"/>
</g>
</svg>
