<svg width="18" height="21" viewBox="0 0 18 21" fill="none" xmlns="http://www.w3.org/2000/svg">
<path fill-rule="evenodd" clip-rule="evenodd" d="M9.27 18.3562C9.9 18.3562 10.53 18.1376 11.16 18.0284C11.88 18.3562 12.69 18.3562 13.5 18.2469H13.59C13.86 18.2469 14.22 18.4654 14.76 18.9025V18.2469C14.76 18.0284 14.85 17.8099 15.03 17.7006C15.3 17.5913 15.48 17.3728 15.66 17.1543C16.47 16.3894 16.92 15.2968 16.92 14.2042C16.92 13.8764 16.83 13.4393 16.74 13.1116C17.01 12.5652 17.19 12.0189 17.28 11.4726C17.73 12.3467 18 13.2208 18 14.2042C18 15.7339 17.37 17.1543 16.38 18.2469C16.2 18.4654 16.02 18.5747 15.84 18.684V20.3229C15.84 20.8692 15.3 21.197 14.94 20.8692C14.58 20.5414 14.22 20.2136 13.86 19.9951C13.77 19.8859 13.68 19.8859 13.5 19.7766C13.23 19.8859 12.87 19.8859 12.6 19.8859C11.34 19.6673 10.17 19.121 9.27 18.3562ZM2.52 15.1875C0.9 13.5486 0 11.2541 0 8.8503C0 3.93347 3.87 0 8.55 0C13.23 0 17.1 3.93347 17.1 8.8503C17.1 13.7671 13.23 17.7006 8.55 17.7006C8.01 17.7006 7.47 17.7006 7.02 17.5913C6.84 17.7006 5.94 18.2469 4.68 19.4488C4.23 19.8859 3.6 19.4488 3.6 18.7932V16.0616C3.15 15.7339 2.79 15.5153 2.52 15.1875ZM7.02 15.9524H7.11C7.56 16.0616 8.01 16.0616 8.55 16.0616C12.51 16.0616 15.66 12.7838 15.66 8.8503C15.66 4.91683 12.51 1.63894 8.55 1.63894C4.59 1.63894 1.44 4.91683 1.44 8.8503C1.44 10.7078 2.16 12.5652 3.51 13.8764C3.87 14.2042 4.23 14.532 4.59 14.7505C4.77 14.8598 4.95 15.1875 4.95 15.5153V17.045C5.85 16.2802 6.57 15.9524 7.02 15.9524ZM4.86 10.5985C4.23 10.5985 3.78 9.94293 3.78 9.28735C3.78 8.52251 4.32 7.97619 4.86 7.97619C5.49 7.97619 5.94 8.52251 5.94 9.28735C5.94 10.0522 5.49 10.5985 4.86 10.5985ZM8.55 10.5985C7.92 10.5985 7.47 9.94293 7.47 9.28735C7.47 8.52251 8.01 7.97619 8.55 7.97619C9.09 7.97619 9.63 8.52251 9.63 9.28735C9.63 10.0522 9.09 10.5985 8.55 10.5985ZM12.15 10.5985C11.52 10.5985 11.07 9.94293 11.07 9.28735C11.07 8.52251 11.61 7.97619 12.15 7.97619C12.69 7.97619 13.23 8.52251 13.23 9.28735C13.23 10.0522 12.78 10.5985 12.15 10.5985Z" fill="#0A2A1D"/>
</svg>
