<svg width="23" height="23" viewBox="0 0 23 23" fill="none" xmlns="http://www.w3.org/2000/svg">
<path d="M15.3913 2.35174C15.6608 2.62131 15.8122 2.98688 15.8122 3.36806C15.8122 3.74923 15.6608 4.1148 15.3913 4.38437L8.27569 11.5L15.3913 18.6156C15.6532 18.8867 15.7981 19.2498 15.7948 19.6268C15.7915 20.0037 15.6403 20.3642 15.3738 20.6307C15.1073 20.8973 14.7467 21.0484 14.3698 21.0517C13.9929 21.055 13.6298 20.9101 13.3587 20.6482L5.22675 12.5163C4.95726 12.2467 4.80587 11.8812 4.80587 11.5C4.80587 11.1188 4.95726 10.7533 5.22675 10.4837L13.3587 2.35174C13.6283 2.08225 13.9938 1.93086 14.375 1.93086C14.7562 1.93086 15.1217 2.08225 15.3913 2.35174Z" fill="black"/>
</svg>
