<svg width="33" height="29" viewBox="0 0 33 29" fill="none" xmlns="http://www.w3.org/2000/svg">
<path d="M0 29H5.99775V11.6016H0V29ZM33 13.0528C33 11.4501 31.6553 10.1504 29.997 10.1504H20.526L21.9615 3.52433C21.9945 3.38081 22.011 3.22931 22.011 3.06984C22.011 2.47182 21.7552 1.92164 21.351 1.53093L19.7505 0L9.87525 9.55238C9.339 10.0786 9.00075 10.8042 9.00075 11.6016V26.0976C9.00075 27.7003 10.3455 29 12.0038 29H25.5008C26.7465 29 27.8108 28.2664 28.2645 27.2299L32.7855 17.0077C32.9175 16.6728 33 16.322 33 15.9472V13.1724L32.9835 13.1564L33 13.0528Z" fill="black"/>
</svg>
