<svg width="19" height="19" viewBox="0 0 19 19" fill="none" xmlns="http://www.w3.org/2000/svg">
<path d="M16.6891 2.50292C16.2738 2.02645 15.7806 1.64848 15.2377 1.39061C14.6949 1.13273 14.1131 1 13.5255 1C12.9379 1 12.3561 1.13273 11.8133 1.39061C11.2704 1.64848 10.7772 2.02645 10.3619 2.50292L9.49978 3.4913L8.63771 2.50292C7.79866 1.54094 6.66066 1.0005 5.47407 1.0005C4.28747 1.0005 3.14947 1.54094 2.31042 2.50292C1.47137 3.46491 1 4.76964 1 6.1301C1 7.49055 1.47137 8.79528 2.31042 9.75727L3.1725 10.7457L9.49978 18L15.8271 10.7457L16.6891 9.75727C17.1047 9.28102 17.4344 8.71557 17.6593 8.0932C17.8842 7.47084 18 6.80377 18 6.1301C18 5.45642 17.8842 4.78935 17.6593 4.16699C17.4344 3.54463 17.1047 2.97917 16.6891 2.50292Z" stroke="#0A2A1D" stroke-width="2" stroke-linecap="round" stroke-linejoin="round"/>
</svg>
