<svg width="16" height="18" viewBox="0 0 16 18" fill="none" xmlns="http://www.w3.org/2000/svg">
<path d="M13.342 12.3788C12.6428 12.3788 12.0173 12.7068 11.5675 13.2389L4.91233 9.4501C4.93341 9.30607 4.94396 9.15804 4.94396 9.006C4.94396 8.85397 4.93341 8.70593 4.91233 8.5619L11.5675 4.77306C12.0173 5.30118 12.6463 5.63325 13.342 5.63325C14.7054 5.63325 15.8122 4.37297 15.8122 2.82063C15.8122 1.26828 14.7054 0 13.342 0C11.9786 0 10.8718 1.26028 10.8718 2.81263C10.8718 2.96466 10.8823 3.11269 10.9034 3.25672L4.24822 7.04557C3.79845 6.51745 3.16947 6.18537 2.47374 6.18537C1.10686 6.18938 0 7.44966 0 9.002C0 10.5543 1.10686 11.8146 2.47022 11.8146C3.16947 11.8146 3.79845 11.4866 4.2447 10.9544L10.8999 14.7433C10.8788 14.8873 10.8683 15.0353 10.8683 15.1874C10.8683 16.7397 11.9751 18 13.3385 18C14.7019 18 15.8087 16.7397 15.8087 15.1874C15.8087 13.635 14.7054 12.3788 13.342 12.3788Z" fill="#0A2A1D"/>
</svg>
