<svg width="132" height="137" viewBox="0 0 132 137" fill="none" xmlns="http://www.w3.org/2000/svg">
<path d="M11.5681 35.3632C13.7654 35.3963 15.8101 34.2462 16.9184 32.3537C18.0268 30.4612 18.0268 28.12 16.9184 26.2276C15.8101 24.3351 13.7654 23.185 11.5681 23.2181C8.24105 23.2682 5.57031 25.9722 5.57031 29.2906C5.57031 32.6091 8.24105 35.3131 11.5681 35.3632ZM104.825 30.2147C107.022 30.2476 109.067 29.0972 110.175 27.2046C111.283 25.312 111.283 22.9708 110.174 21.0785C109.066 19.1861 107.021 18.0362 104.823 18.0696C101.496 18.12 98.826 20.8244 98.8264 24.1428C98.8268 27.4612 101.498 30.165 104.825 30.2147Z" fill="#FF37AD"/>
<path d="M109.764 108.236C111.961 108.268 114.006 107.118 115.114 105.226C116.222 103.333 116.222 100.992 115.113 99.0994C114.005 97.207 111.96 96.0571 109.763 96.0905C106.436 96.1409 103.765 98.8453 103.766 102.164C103.766 105.482 106.437 108.186 109.764 108.236ZM36.4352 12.1459C38.6325 12.1789 40.6773 11.0288 41.7856 9.13634C42.894 7.24388 42.894 4.90267 41.7856 3.01021C40.6773 1.11774 38.6325 -0.0323928 36.4352 0.00069517C33.1082 0.0507949 30.4375 2.75485 30.4375 6.07328C30.4375 9.3917 33.1082 12.0958 36.4352 12.1459Z" fill="#FCC954"/>
<path d="M72.4629 54.3182C70.9994 54.3182 69.6174 53.6465 68.7161 52.4965C67.8149 51.3465 67.495 49.8467 67.8488 48.4304C68.039 47.6704 68.1944 46.9076 68.311 46.1462C66.8842 46.7335 65.3643 47.064 63.8219 47.1222C61.0567 47.2274 58.5803 46.7623 56.4704 45.7434C54.402 44.7552 52.6796 43.1691 51.5273 41.1915C49.2577 37.2682 49.4534 32.1072 52.0228 28.0427C54.4729 24.1623 58.622 22.0622 63.1209 22.4055C66.5856 22.6754 69.6228 23.9698 72.0548 26.1904C72.4976 24.9444 72.9224 23.6099 73.3263 22.1895C75.8111 13.443 76.6314 4.66052 76.6384 4.57192C76.7518 3.31987 77.3595 2.16411 78.3278 1.35917C79.2961 0.554236 80.5455 0.166137 81.8008 0.280345C84.4147 0.518049 86.3409 2.82328 86.104 5.43024C86.0693 5.8234 85.1948 15.1873 82.4699 24.7783C81.0943 29.6209 79.4688 33.7131 77.6267 36.9802C77.7628 37.7084 77.871 38.456 77.9516 39.2215C78.3347 42.9192 78.0293 46.8993 77.0701 50.7299C76.5389 52.8367 74.6411 54.3147 72.4629 54.3182ZM62.1172 31.847C61.6259 31.847 60.7597 31.9909 60.0628 33.0929C59.3951 34.1492 59.2647 35.5917 59.7602 36.4486C60.4196 37.588 62.3588 37.6877 63.4568 37.6461C64.7033 37.5991 65.9804 36.8197 67.2297 35.3993C67.021 34.9649 66.7749 34.5494 66.494 34.1575C65.4626 32.7288 64.1564 31.9979 62.3824 31.8594C62.3157 31.8553 62.2255 31.847 62.1172 31.847Z" fill="#2890E9"/>
<path d="M58.7948 67.3049C39.0821 51.8082 18.4782 45.0939 12.7744 52.3093C12.2378 52.9956 11.8433 53.7815 11.614 54.6212C11.5793 54.7223 11.5515 54.8289 11.5335 54.9341V54.9466C11.4571 55.2705 11.4002 55.5972 11.3627 55.9295L0.202216 121.096C-1.58568 131.562 8.80302 139.942 18.6934 136.013L79.2155 111.962C80.2829 111.539 82.9092 109.92 83.6283 109.027C83.8184 108.842 83.9965 108.644 84.1613 108.436C89.8637 101.219 78.5061 82.8058 58.7948 67.3035V67.3049Z" fill="#F0A420"/>
<path d="M84.1537 108.439C89.8602 101.22 78.5068 82.8035 58.7941 67.3053C39.0814 51.8072 18.4747 45.0957 12.7682 52.3153C7.06159 59.5348 18.415 77.9512 38.1277 93.4493C57.8405 108.947 78.4471 115.659 84.1537 108.439Z" fill="#FCC954"/>
<path d="M80.7115 104.235C85.3937 98.3098 75.0785 82.4116 57.6701 68.7256C40.2617 55.0383 22.3521 48.7463 17.67 54.67C12.9865 60.5952 23.3016 76.4934 40.71 90.1794C58.1185 103.867 76.028 110.16 80.7115 104.235Z" fill="#F0A420"/>
<path d="M39.1021 127.903C31.7367 127.939 25.7331 124.262 18.4566 118.542C9.98903 111.883 4.36575 103.912 3.92155 99.3726L1.52148 113.384C2.63198 117.382 6.41739 122.45 11.9074 126.767C16.4743 130.358 21.0815 132.823 25.858 133.165L39.1021 127.902V127.903ZM31.7339 102.472C17.6251 91.3778 8.45931 78.6471 8.71751 71.3652L6.37852 85.0194C6.55898 91.5232 14.1798 102.033 25.021 110.557C34.7351 118.195 44.8572 123.57 52.6085 122.536L65.7665 117.306C55.1654 118.037 43.98 112.103 31.7339 102.472Z" fill="#2E6AC9"/>
<path d="M60.9411 74.3724C63.1384 74.4055 65.1831 73.2554 66.2915 71.3629C67.3998 69.4704 67.3998 67.1292 66.2915 65.2368C65.1831 63.3443 63.1384 62.1942 60.9411 62.2273C57.6141 62.2774 54.9434 64.9814 54.9434 68.2998C54.9434 71.6183 57.6141 74.3223 60.9411 74.3724Z" fill="#2890E9"/>
<path d="M93.7814 62.5568L93.8258 62.507C93.8813 62.4475 93.9841 62.3381 94.1326 62.1886C94.4324 61.8896 94.9141 61.43 95.5721 60.8762C97.402 59.3485 99.402 58.0358 101.533 56.964C106.74 54.3364 114.492 52.192 124.66 54.5302C127.715 55.2329 130.763 53.3325 131.467 50.2857C132.172 47.2389 130.267 44.1994 127.212 43.4967C114.049 40.4705 103.584 43.2378 96.4049 46.8635C93.4898 48.3305 90.7542 50.1283 88.2525 52.2211C87.5016 52.8501 86.7786 53.5115 86.0856 54.2035C85.8165 54.473 85.5541 54.749 85.2986 55.0314L85.2375 55.1006L85.2153 55.1255L85.2056 55.1366L85.2014 55.1407C85.2 55.1435 85.1973 55.1463 89.5004 58.837L85.1973 55.1463C83.2039 57.5158 83.486 61.0422 85.8309 63.0665C88.1758 65.0908 91.7157 64.8639 93.7814 62.5568Z" fill="#FF37AD"/>
<path d="M37.5449 22.1746C36.6898 20.8201 35.3293 19.8607 33.7638 19.5082C32.1983 19.1558 30.5565 19.4392 29.2009 20.296C27.8443 21.1497 26.8836 22.5062 26.5303 24.0667C26.177 25.6272 26.4601 27.2638 27.3172 28.6161C27.5365 28.9663 32.0354 36.2357 32.9599 46.1908C33.9011 56.305 30.9208 65.6025 24.0898 73.9393C26.39 76.8548 29.1579 79.8852 32.32 82.9156C36.6954 77.8737 39.9866 72.4552 42.1493 66.7225C44.8103 59.6691 45.7515 52.1907 44.9491 44.4963C43.6707 32.2556 38.3306 23.4177 37.5449 22.1746Z" fill="#FF37AD"/>
<path d="M113.23 80.2822C116.316 81.0782 118.497 81.9462 119.439 82.3504C121.699 83.7337 124.597 83.5014 126.606 81.7759C127.918 80.6453 128.686 79.0113 128.718 77.2822C128.762 74.638 127.087 72.2687 124.574 71.4235C121.685 70.1444 110.741 65.8251 96.2743 66.592C86.5367 67.1084 77.1724 69.7983 68.4439 74.5951C60.179 79.1373 52.5041 85.5733 45.5371 93.784C48.8609 96.1432 52.3236 98.3017 55.9064 100.248C67.6707 86.876 81.2438 79.6274 96.3673 78.6694C102.038 78.3259 107.728 78.8701 113.23 80.2822Z" fill="#2890E9"/>
</svg>
