<svg width="25" height="18" viewBox="0 0 25 18" fill="none" xmlns="http://www.w3.org/2000/svg">
<path d="M23.2499 7.60174L22.6025 4.66543C22.7795 4.6228 22.9123 4.44474 22.9123 4.23142V3.75799C22.9123 2.73007 22.1748 1.89383 21.2683 1.89383H18.3194V0.917295C18.3194 0.411476 17.9565 0 17.5105 0H2.4791C2.03301 0 1.67012 0.411476 1.67012 0.917295V8.96578C1.67012 9.21088 1.84536 9.40964 2.06157 9.40964C2.27773 9.40964 2.45303 9.21093 2.45303 8.96578V0.917295C2.45303 0.900963 2.4647 0.88773 2.4791 0.88773H17.5104C17.5248 0.88773 17.5365 0.900963 17.5365 0.917295V8.96589C17.5365 9.21099 17.7117 9.40975 17.9279 9.40975C18.1441 9.40975 18.3194 9.21105 18.3194 8.96589V8.46273H22.937C22.9374 8.46273 22.9377 8.46284 22.938 8.46284C22.9384 8.46284 22.9388 8.46278 22.9391 8.46278C23.5073 8.46322 23.9898 8.8861 24.1555 9.46883H22.9383C22.7222 9.46883 22.5469 9.66753 22.5469 9.91269V10.8596C22.5469 11.6264 23.0971 12.2503 23.7734 12.2503H24.217V14.2032H23.1935C22.8573 13.1024 21.9344 12.3094 20.8506 12.3094C19.7669 12.3094 18.8439 13.1024 18.5078 14.2032H18.3193V10.8595C18.3193 10.6144 18.144 10.4156 17.9278 10.4156C17.7117 10.4156 17.5364 10.6143 17.5364 10.8595V14.2031H9.41489C9.07866 13.1022 8.15576 12.3093 7.07202 12.3093C5.98828 12.3093 5.06533 13.1022 4.72915 14.2031H2.4791C2.4647 14.2031 2.45303 14.1898 2.45303 14.1735V13.197H4.14927C4.36543 13.197 4.54072 12.9983 4.54072 12.7532C4.54072 12.508 4.36548 12.3093 4.14927 12.3093H0.391455C0.175293 12.3093 0 12.508 0 12.7532C0 12.9983 0.175244 13.197 0.391455 13.197H1.67017V14.1735C1.67017 14.6793 2.03306 15.0908 2.47915 15.0908H4.5936C4.59351 15.1007 4.59292 15.1105 4.59292 15.1204C4.59292 16.6704 5.70508 17.9314 7.07202 17.9314C8.43896 17.9314 9.55112 16.6704 9.55112 15.1204C9.55112 15.1104 9.55054 15.1007 9.55044 15.0908H18.3722C18.3721 15.1007 18.3715 15.1105 18.3715 15.1204C18.3715 16.6704 19.4837 17.9314 20.8506 17.9314C22.2176 17.9314 23.3297 16.6704 23.3297 15.1204C23.3297 15.1104 23.3291 15.1007 23.3291 15.0908H24.6085C24.8247 15.0908 25 14.8921 25 14.6469V9.91258C25 8.74371 24.2394 7.77254 23.2499 7.60174ZM18.3194 2.78151H21.2683C21.7431 2.78151 22.1294 3.21956 22.1294 3.75799V3.78755H18.3194V2.78151ZM18.3194 7.57505V4.67523H21.7977L22.4371 7.57505H18.3194ZM7.07202 17.0438C6.13672 17.0438 5.37578 16.1811 5.37578 15.1205C5.37578 14.0599 6.13672 13.1971 7.07202 13.1971C8.00732 13.1971 8.76826 14.0599 8.76826 15.1205C8.76826 16.1811 8.00732 17.0438 7.07202 17.0438ZM20.8507 17.0438C19.9154 17.0438 19.1545 16.1811 19.1545 15.1205C19.1545 14.0599 19.9154 13.1971 20.8507 13.1971C21.786 13.1971 22.547 14.0599 22.547 15.1205C22.547 16.1811 21.786 17.0438 20.8507 17.0438ZM24.2171 11.3625H23.7735C23.5289 11.3625 23.3298 11.1369 23.3298 10.8595V10.3564H24.2171V11.3625H24.2171Z" fill="black"/>
<path d="M7.07168 14.2031C6.62559 14.2031 6.2627 14.6146 6.2627 15.1204C6.2627 15.6262 6.62559 16.0377 7.07168 16.0377C7.51777 16.0377 7.88066 15.6262 7.88066 15.1204C7.88066 14.6146 7.51777 14.2031 7.07168 14.2031Z" fill="black"/>
<path d="M20.851 14.2031C20.4049 14.2031 20.042 14.6146 20.042 15.1204C20.042 15.6262 20.4049 16.0377 20.851 16.0377C21.2971 16.0377 21.66 15.6262 21.66 15.1204C21.66 14.6146 21.2971 14.2031 20.851 14.2031Z" fill="black"/>
<path d="M16.2575 12.3096H10.412C10.1958 12.3096 10.0205 12.5083 10.0205 12.7534C10.0205 12.9986 10.1958 13.1973 10.412 13.1973H16.2575C16.4736 13.1973 16.6489 12.9986 16.6489 12.7534C16.6489 12.5083 16.4737 12.3096 16.2575 12.3096Z" fill="black"/>
<path d="M6.23687 10.416H1.22642C1.01025 10.416 0.834961 10.6147 0.834961 10.8599C0.834961 11.105 1.01021 11.3037 1.22642 11.3037H6.23687C6.45303 11.3037 6.62832 11.105 6.62832 10.8599C6.62832 10.6147 6.45303 10.416 6.23687 10.416Z" fill="black"/>
<path d="M13.6114 4.39119C13.4586 4.2179 13.2107 4.2179 13.0578 4.39125L9.57677 8.33831L7.76588 6.28497C7.613 6.11162 7.36515 6.11162 7.21232 6.28497C7.05944 6.45832 7.05944 6.7393 7.21232 6.91265L9.30001 9.27986C9.37643 9.36656 9.47662 9.40985 9.57677 9.40985C9.67692 9.40985 9.77716 9.36656 9.85353 9.27986L13.6113 5.01893C13.7642 4.84552 13.7642 4.56454 13.6114 4.39119Z" fill="black"/>
</svg>
