<svg width="72" height="71" viewBox="0 0 72 71" fill="none" xmlns="http://www.w3.org/2000/svg">
<path d="M0 0H72V70.6657H0V0Z" fill="white" fill-opacity="0.01"/>
<path d="M36 4.4165V9.05394" stroke="#EED030" stroke-width="4" stroke-linecap="round" stroke-linejoin="round"/>
<path d="M58.2736 13.4722L54.9326 16.7513" stroke="#EED030" stroke-width="4" stroke-linecap="round" stroke-linejoin="round"/>
<path d="M67.4999 35.333H62.7749" stroke="#EED030" stroke-width="4" stroke-linecap="round" stroke-linejoin="round"/>
<path d="M58.2736 57.1941L54.9326 53.915" stroke="#EED030" stroke-width="4" stroke-linecap="round" stroke-linejoin="round"/>
<path d="M36 66.2493V61.6118" stroke="#EED030" stroke-width="4" stroke-linecap="round" stroke-linejoin="round"/>
<path d="M13.7261 57.1941L17.0671 53.915" stroke="#EED030" stroke-width="4" stroke-linecap="round" stroke-linejoin="round"/>
<path d="M4.5 35.333H9.225" stroke="#EED030" stroke-width="4" stroke-linecap="round" stroke-linejoin="round"/>
<path d="M13.7261 13.4722L17.0671 16.7513" stroke="#EED030" stroke-width="4" stroke-linecap="round" stroke-linejoin="round"/>
<path d="M36 52.9994C45.9411 52.9994 54 45.0898 54 35.3329C54 25.5761 45.9411 17.6665 36 17.6665C26.0589 17.6665 18 25.5761 18 35.3329C18 45.0898 26.0589 52.9994 36 52.9994Z" stroke="#EED030" stroke-width="4" stroke-linejoin="round"/>
</svg>
