<svg width="85" height="83" viewBox="0 0 85 83" fill="none" xmlns="http://www.w3.org/2000/svg">
<path d="M0 0H84.231V82.67H0V0Z" fill="white" fill-opacity="0.01"/>
<path fill-rule="evenodd" clip-rule="evenodd" d="M42.1156 75.7808C56.653 75.7808 68.4378 64.2144 68.4378 49.9465C68.4378 25.8344 42.1156 6.88916 42.1156 6.88916C42.1156 6.88916 15.7935 25.8344 15.7935 49.9465C15.7935 64.2144 27.5782 75.7808 42.1156 75.7808Z" stroke="#EED030" stroke-width="4" stroke-linecap="round" stroke-linejoin="round"/>
<path d="M15.7935 49.9468C15.7935 64.2148 27.5782 75.7812 42.1156 75.7812C56.653 75.7812 68.4378 64.2148 68.4378 49.9468C68.4378 49.9468 52.6445 55.1137 42.1156 49.9468C31.5868 44.7799 15.7935 49.9468 15.7935 49.9468Z" stroke="#EED030" stroke-width="4" stroke-linejoin="round"/>
</svg>
