<svg width="32" height="32" viewBox="0 0 32 32" fill="none" xmlns="http://www.w3.org/2000/svg">
<path d="M16.0002 13.3333C18.5775 13.3333 20.6668 11.244 20.6668 8.66667C20.6668 6.08934 18.5775 4 16.0002 4C13.4228 4 11.3335 6.08934 11.3335 8.66667C11.3335 11.244 13.4228 13.3333 16.0002 13.3333Z" stroke="#EED030" stroke-width="2" stroke-linecap="round" stroke-linejoin="round"/>
<path d="M4 27.1998V27.9998H28V27.1998C28 24.2129 28 22.7194 27.4187 21.5786C26.9074 20.575 26.0915 19.7591 25.0879 19.2478C23.9471 18.6665 22.4536 18.6665 19.4667 18.6665H12.5333C9.5464 18.6665 8.05293 18.6665 6.91207 19.2478C5.90852 19.7591 5.09262 20.575 4.5813 21.5786C4 22.7194 4 24.2129 4 27.1998Z" stroke="#EED030" stroke-width="2" stroke-linecap="round" stroke-linejoin="round"/>
</svg>
